<svg width="57" height="57" viewBox="0 0 57 57" fill="none" xmlns="http://www.w3.org/2000/svg">
<path d="M38.0569 4.63263C35.6303 2.01301 32.2413 0.570312 28.5008 0.570312C24.7401 0.570312 21.34 2.00422 18.9248 4.60769C16.4834 7.23979 15.2939 10.817 15.5732 14.68C16.1267 22.3009 21.926 28.5003 28.5008 28.5003C35.0754 28.5003 40.8647 22.302 41.4271 14.6824C41.7101 10.8545 40.5131 7.28467 38.0569 4.63263Z" fill="black"/>
<path d="M50.4452 56.4301H6.55517C5.98065 56.4377 5.41172 56.3169 4.88982 56.0771C4.36779 55.8368 3.90597 55.4834 3.53773 55.0424C2.72726 54.0736 2.40058 52.7506 2.64247 51.4128C3.69484 45.5749 6.9791 40.6709 12.1413 37.2282C16.7273 34.1723 22.5364 32.4902 28.5002 32.4902C34.4639 32.4902 40.2732 34.1735 44.8592 37.2282C50.0212 40.6697 53.3055 45.5736 54.3579 51.4116C54.5998 52.7495 54.2731 54.0725 53.4626 55.0412C53.0946 55.4825 52.6327 55.836 52.1108 56.0764C51.5887 56.3166 51.0198 56.4376 50.4452 56.4301Z" fill="black"/>
</svg>
