<svg width="101" height="102" viewBox="0 0 101 102" fill="none" xmlns="http://www.w3.org/2000/svg">
<path opacity="0.6" d="M42.64 8.83999C42.8133 5.71999 43.8533 3.46666 45.76 2.08C47.84 0.693335 50.18 0 52.78 0C55.2067 0 57.46 0.78 59.54 2.34C61.62 3.72667 62.5733 5.98 62.4 9.09999L60.32 92.56C60.1467 95.3333 59.02 97.5867 56.94 99.32C54.86 100.88 52.6067 101.66 50.18 101.66C47.7533 101.66 45.5 100.88 43.42 99.32C41.5133 97.5867 40.6467 95.3333 40.82 92.56L42.64 8.83999ZM86.06 10.92C86.9267 10.4 87.7933 9.96666 88.66 9.62C89.7 9.27333 90.5667 9.09999 91.26 9.09999C94.0333 9.09999 96.2 10.0533 97.76 11.96C99.4933 13.8667 100.36 16.0333 100.36 18.46C100.36 20.1933 99.9267 21.7533 99.06 23.14C98.3667 24.3533 97.24 25.48 95.68 26.52C86.84 32.4133 77.8267 38.3933 68.64 44.46C59.6267 50.5267 50.5267 56.5933 41.34 62.66C32.3267 68.7267 23.3133 74.7933 14.3 80.86C13.4333 81.2067 12.5667 81.5533 11.7 81.9C10.8333 82.0733 9.96667 82.16 9.1 82.16C7.54 82.16 6.06667 81.7267 4.68 80.86C3.29333 79.82 2.16667 78.52 1.3 76.96C0.433334 75.4 0 73.9267 0 72.54C0 69.2467 1.47333 66.6467 4.42 64.74L86.06 10.92ZM14.04 30.42C12.6533 29.38 11.6133 28.2533 10.92 27.04C10.2267 25.8267 9.88 24.44 9.88 22.88C9.88 20.28 10.7467 17.94 12.48 15.86C14.2133 13.78 16.2933 12.74 18.72 12.74C19.5867 12.74 20.4533 12.9133 21.32 13.26C22.36 13.4333 23.2267 13.8667 23.92 14.56L87.1 59.8C88.4867 60.84 89.5267 62.0533 90.22 63.44C90.9133 64.6533 91.26 65.9533 91.26 67.34C91.26 70.1133 90.3933 72.4533 88.66 74.36C86.9267 76.2667 84.76 77.22 82.16 77.22C81.4667 77.22 80.6 77.1333 79.56 76.96C78.6933 76.6133 77.74 76.0933 76.7 75.4L14.04 30.42Z" fill="#7766C6"/>
</svg>
