<?xml version="1.0" standalone="no"?>
<!DOCTYPE svg PUBLIC "-//W3C//DTD SVG 20010904//EN"
 "http://www.w3.org/TR/2001/REC-SVG-20010904/DTD/svg10.dtd">
<svg version="1.0" xmlns="http://www.w3.org/2000/svg"
 width="512.000000pt" height="512.000000pt" viewBox="0 0 512.000000 512.000000"
 preserveAspectRatio="xMidYMid meet">

<g transform="translate(0.000000,512.000000) scale(0.100000,-0.100000)"
fill="#FFFFFF   " stroke="none">
<path d="M2360 5109 c-830 -94 -1480 -753 -1571 -1594 -55 -508 159 -1106 756
-2120 97 -164 632 -1028 772 -1245 54 -84 122 -134 199 -146 117 -17 214 32
287 146 63 97 385 615 586 940 555 898 836 1497 922 1965 167 913 -452 1826
-1371 2023 -185 40 -399 51 -580 31z m328 -199 c281 -25 533 -115 767 -273
118 -80 322 -284 402 -402 159 -236 250 -493 273 -774 27 -335 -77 -715 -343
-1256 -183 -370 -340 -641 -792 -1365 -149 -239 -296 -475 -327 -525 -31 -52
-66 -95 -80 -103 -32 -15 -71 -3 -91 30 -815 1303 -964 1555 -1173 1983 -313
643 -394 1031 -303 1451 64 297 204 549 429 775 295 296 658 451 1090 468 19
0 86 -4 148 -9z"/>
<path d="M2368 4120 c-309 -76 -555 -337 -609 -645 -17 -100 -7 -292 21 -380
88 -277 306 -484 584 -555 109 -28 283 -28 392 0 277 71 499 281 584 555 28
88 38 280 21 380 -44 254 -228 488 -467 596 -152 69 -364 89 -526 49z m336
-200 c313 -80 511 -381 457 -696 -15 -88 -85 -232 -145 -300 -177 -200 -475
-260 -718 -145 -311 148 -435 519 -278 831 123 245 417 379 684 310z"/>
</g>
</svg>
