<svg width="527" height="529" xmlns="http://www.w3.org/2000/svg" xmlns:xlink="http://www.w3.org/1999/xlink" xml:space="preserve" overflow="hidden"><g><path d="M608.975 241.445C608.682 219.426 604.56 197.626 596.794 177.021 583.177 141.877 555.391 114.091 520.247 100.474 499.906 92.8379 478.417 88.7092 456.695 88.2632 428.728 87.0131 419.861 86.6642 348.866 86.6642 277.872 86.6642 268.772 86.6642 241.008 88.2632 219.296 88.7125 197.817 92.8411 177.486 100.474 142.336 114.082 114.547 141.871 100.939 177.021 93.2878 197.346 89.168 218.83 88.7574 240.543 87.5073 268.54 87.1294 277.407 87.1294 348.401 87.1294 419.395 87.1294 428.466 88.7574 456.259 89.1935 478.005 93.2927 499.46 100.939 519.84 114.569 554.979 142.366 582.754 177.515 596.358 197.791 604.3 219.273 608.725 241.038 609.44 269.034 610.691 277.901 611.068 348.895 611.068 419.89 611.068 428.989 611.068 456.753 609.44 478.475 609.013 499.965 604.894 520.305 597.259 555.439 583.626 583.219 555.846 596.852 520.712 604.498 500.362 608.597 478.906 609.033 457.131 610.284 429.164 610.661 420.297 610.661 349.273 610.603 278.279 610.603 269.267 608.975 241.445ZM348.692 482.657C274.441 482.657 214.291 422.506 214.291 348.256 214.291 274.005 274.441 213.855 348.692 213.855 422.919 213.855 483.093 274.028 483.093 348.256 483.093 422.483 422.919 482.657 348.692 482.657ZM488.442 240.224C471.15 240.24 457.118 226.234 457.102 208.942 457.102 208.922 457.102 208.903 457.102 208.884 457.102 191.583 471.127 177.558 488.427 177.558 505.728 177.558 519.753 191.583 519.753 208.884 519.753 226.211 505.74 240.224 488.442 240.224Z" transform="matrix(1.00063 0 0 1 -85.7283 -84.9978)"/><path d="M435.996 348.256C435.996 396.472 396.908 435.56 348.692 435.56 300.475 435.56 261.388 396.472 261.388 348.256 261.388 300.039 300.475 260.952 348.692 260.952 396.908 260.952 435.996 300.039 435.996 348.256Z" transform="matrix(1.00063 0 0 1 -85.7283 -84.9978)"/></g></svg>