<svg width="366" height="332" viewBox="0 0 366 332" fill="none" xmlns="http://www.w3.org/2000/svg">
<rect x="7" y="7" width="352" height="318" rx="25" fill="white"/>
<rect x="3.5" y="3.5" width="359" height="325" rx="28.5" stroke="white" stroke-opacity="0.01" stroke-width="7"/>
<path d="M136.869 209.839C136.835 209.871 136.777 209.898 136.77 209.934C136.157 212.902 134.048 213.114 131.081 213.075C115.297 212.865 99.5085 212.91 83.7216 212.87C80.6025 212.862 77.4833 212.869 74.1182 212.869C74.3497 212.247 74.4528 211.889 74.6125 211.553C94.9856 168.649 115.364 125.748 135.739 82.8451C141.031 71.703 146.339 60.5671 151.574 49.4032C152.137 48.2033 152.803 47.8086 154.256 47.8124C173.808 47.8629 193.36 47.8542 212.912 47.8256C214.028 47.8239 214.623 48.0546 215.099 49.0599C237.844 97.0387 260.628 145.003 283.407 192.968C286.314 199.087 289.223 205.205 292.128 211.325C292.317 211.723 292.477 212.132 292.735 212.731C292.111 212.731 291.645 212.729 291.178 212.731C280.086 212.801 268.995 212.903 257.903 212.937C230.976 213.019 204.048 213.069 177.121 213.132C176.828 213.132 176.535 213.121 176.108 212.997C178.727 206.313 181.459 199.739 184.238 193.182C186.286 188.35 188.411 183.544 190.474 178.717C192.374 174.271 194.203 169.799 196.145 165.368C196.57 164.4 196.582 163.793 195.425 163.381C195.071 163.254 194.767 163.01 194.44 162.754C194.439 162.69 194.441 162.56 194.577 162.544C199.181 162.528 203.649 162.528 208.35 162.528C200.01 144.381 191.778 126.466 183.457 108.36C183.18 108.89 183.003 109.198 182.856 109.517C169.818 137.877 156.778 166.236 143.755 194.601C142.488 197.358 141.329 200.156 140.03 202.988C139.736 203.502 139.531 203.963 139.266 204.503C138.726 205.67 138.247 206.758 137.697 207.909C137.47 208.371 137.314 208.77 137.093 209.217C136.975 209.456 136.922 209.648 136.869 209.839Z" fill="#666666"/>
<path d="M132.547 245.5C132.547 240.025 132.543 234.682 132.549 229.339C132.551 227.657 133.036 227.218 134.881 227.216C140.6 227.212 146.319 227.211 152.037 227.217C153.833 227.219 154.292 227.627 154.292 229.242C154.298 238.647 154.286 248.053 154.3 257.458C154.305 260.808 156.179 262.959 159.439 263.174C162.106 263.35 164.286 262.282 165.949 260.439C166.263 260.091 166.267 259.45 166.268 258.944C166.285 249.141 166.28 239.339 166.281 229.536C166.281 227.576 166.674 227.216 168.82 227.216C174.441 227.214 180.062 227.212 185.683 227.216C187.567 227.217 188.026 227.62 188.026 229.319C188.031 245.392 188.03 261.465 188.026 277.538C188.026 279.198 187.531 279.641 185.67 279.647C182.2 279.657 178.729 279.618 175.26 279.666C173.993 279.684 173.241 279.2 172.789 278.185C172.32 277.128 171.821 276.082 171.338 275.037C169.704 276.115 168.225 277.252 166.583 278.147C158.577 282.51 146.944 281.937 139.956 276.817C135.483 273.54 133.258 269.056 132.908 264.026C132.483 257.912 132.641 251.765 132.547 245.5Z" fill="#666666"/>
<path d="M270.062 225.925C275.483 226.305 280.542 227.294 284.853 230.313C289.559 233.607 291.893 238.171 292.925 243.277C293.579 246.514 293.956 249.835 294.019 253.125C294.172 261.117 294.07 269.113 294.068 277.107C294.067 279.252 293.621 279.649 291.237 279.65C287.619 279.651 284.001 279.651 280.383 279.65C277.972 279.65 277.754 279.497 277.175 277.432C277.044 276.962 276.904 276.495 276.716 275.845C276.267 276.135 275.91 276.386 275.532 276.608C266.925 281.66 257.752 282.684 248.362 278.941C240.872 275.955 238.025 269.008 238.586 262.399C239.327 253.67 246.542 249.152 254.905 248.155C258.793 247.691 262.653 247.825 266.297 249.161C268.368 249.921 270.239 251.129 272.037 252.051C272.037 250.759 272.31 249.029 271.979 247.4C271.348 244.298 268.378 242.365 264.557 242.331C260.281 242.293 256.242 243.231 252.424 244.959C250.849 245.672 250.457 245.586 249.702 244.171C247.837 240.675 245.999 237.167 244.175 233.654C243.442 232.242 243.631 231.723 245.105 230.94C250.243 228.208 255.849 226.749 261.731 226.191C264.442 225.934 267.191 226.003 270.062 225.925ZM262.43 264.908C262.918 265.386 263.321 265.987 263.91 266.32C266.131 267.575 270.545 266.638 271.985 264.675C272.494 263.981 272.328 262.369 271.543 261.941C270.312 261.269 269.043 260.485 267.677 260.22C264.503 259.604 261.322 261.198 262.43 264.908Z" fill="#666666"/>
<path d="M104.824 251.188C105.341 251.654 105.776 252.061 106.37 252.614C106.37 250.764 106.607 249.088 106.319 247.488C105.768 244.429 102.746 242.389 98.9671 242.331C94.5855 242.264 90.439 243.216 86.5746 245.047C85.2595 245.67 84.6102 245.34 84.0514 244.271C82.1761 240.682 80.2998 237.094 78.3823 233.524C77.7617 232.369 78.1216 231.614 79.2817 230.996C84.4172 228.262 90.0152 226.822 95.8855 226.181C100.419 225.686 104.953 225.715 109.452 226.509C119.042 228.201 124.777 233.555 126.898 242.008C127.744 245.38 128.191 248.891 128.273 252.35C128.467 260.604 128.337 268.865 128.334 277.123C128.333 279.32 127.961 279.649 125.528 279.65C121.911 279.651 118.294 279.65 114.676 279.649C112.274 279.649 112.039 279.486 111.464 277.434C111.332 276.966 111.199 276.497 111.059 276.002C110.891 276.021 110.716 275.993 110.629 276.058C105.709 279.736 99.8809 280.852 93.6962 281.016C89.1464 281.137 84.8181 280.427 80.9782 278.128C74.7898 274.425 72.4673 268.971 72.9001 262.507C73.4719 253.966 80.5519 249.155 89.2305 248.153C93.4238 247.669 97.5248 247.928 101.443 249.44C102.598 249.886 103.646 250.559 104.824 251.188ZM101.751 260.134C101.025 260.159 100.278 260.096 99.5764 260.227C97.5324 260.608 96.4286 261.799 96.4276 263.497C96.4266 265.22 97.4952 266.331 99.5583 266.773C101.606 267.212 103.411 266.652 105.077 265.642C107.112 264.409 107.178 262.663 105.16 261.452C104.211 260.882 103.057 260.589 101.751 260.134Z" fill="#666666"/>
<path d="M193.718 251.699C189.197 244.685 189.711 232.492 203.416 227.746C211.587 224.917 219.804 225.408 227.919 227.964C230.438 228.757 232.814 229.925 235.235 230.959C236.466 231.484 236.728 232.291 236.147 233.463C234.51 236.76 232.939 240.085 231.396 243.42C230.885 244.526 230.261 244.649 229.157 244.042C225.495 242.029 221.668 240.408 217.244 240.434C216.759 240.437 216.155 240.362 215.817 240.584C215.152 241.022 214.295 241.581 214.155 242.207C214.018 242.819 214.461 243.838 215.027 244.214C216.185 244.983 217.572 245.492 218.908 246.016C221.59 247.069 224.382 247.918 226.986 249.106C233.301 251.987 236.778 256.601 236.994 263.104C237.243 270.577 233.008 276.44 225.268 279.165C217.755 281.81 210.14 281.546 202.582 279.463C199.382 278.582 196.313 277.282 193.251 276.039C191.563 275.353 191.432 274.711 192.184 273.166C193.714 270.017 195.247 266.87 196.788 263.725C197.531 262.209 197.615 262.284 199.259 262.937C202.281 264.138 205.344 265.267 208.454 266.263C209.465 266.587 210.679 266.482 211.793 266.434C213.031 266.38 213.88 265.73 214.227 264.638C214.559 263.592 213.874 262.876 213.003 262.462C211.369 261.686 209.674 260.994 207.95 260.397C203.88 258.991 199.803 257.597 196.592 254.805C195.548 253.896 194.71 252.793 193.718 251.699Z" fill="#666666"/>
<path d="M179.19 162.566C180.761 162.557 182.332 162.548 184.038 162.659C182.91 165.955 181.693 169.147 180.374 172.305C178.433 176.95 176.413 181.567 174.44 186.201C171.019 194.24 167.599 202.279 164.206 210.328C163.832 211.215 163.638 212.165 163.361 213.086C161.79 213.101 160.219 213.116 158.508 213.016C158.447 212.56 158.479 212.203 158.613 211.881C160.75 206.784 162.887 201.686 165.049 196.597C167.594 190.606 170.167 184.624 172.718 178.635C174.411 174.659 176.109 170.684 177.755 166.692C178.311 165.343 178.716 163.943 179.19 162.566Z" fill="#666666"/>
<path d="M179.054 162.555C178.717 163.943 178.312 165.343 177.756 166.692C176.109 170.684 174.412 174.658 172.718 178.635C170.168 184.624 167.594 190.606 165.049 196.597C162.888 201.686 160.75 206.783 158.614 211.881C158.479 212.203 158.448 212.56 158.374 213.001C157.001 213.114 155.623 213.127 154.105 213.025C154.256 211.939 154.455 210.939 154.849 210.005C158.145 202.194 161.467 194.392 164.801 186.594C167.464 180.367 170.178 174.156 172.82 167.922C173.564 166.166 174.138 164.351 174.79 162.564C176.166 162.557 177.542 162.55 179.054 162.555Z" fill="#666666"/>
<path d="M163.495 213.106C163.638 212.165 163.832 211.215 164.206 210.328C167.599 202.279 171.019 194.24 174.44 186.201C176.413 181.567 178.434 176.95 180.374 172.305C181.693 169.147 182.91 165.955 184.175 162.672C185.454 162.557 186.733 162.547 188.146 162.658C187.643 164.385 187.031 166 186.365 167.596C184.065 173.106 181.762 178.614 179.428 184.112C177.86 187.804 176.217 191.47 174.643 195.16C172.929 199.174 171.224 203.192 169.58 207.23C168.797 209.154 168.165 211.127 167.464 213.078C166.186 213.094 164.907 213.11 163.495 213.106Z" fill="#666666"/>
<path d="M163.642 162.558C164.823 162.556 166.003 162.555 167.319 162.663C167.212 163.574 167.045 164.401 166.717 165.172C164.24 170.983 161.723 176.78 159.235 182.587C155.655 190.94 152.064 199.289 148.534 207.659C147.78 209.447 147.262 211.317 146.636 213.149C145.454 213.155 144.272 213.16 142.952 213.055C143.1 211.974 143.295 210.973 143.687 210.039C145.93 204.692 148.227 199.363 150.494 194.024C153.72 186.425 156.951 178.828 160.15 171.22C161.358 168.347 162.481 165.446 163.642 162.558Z" fill="#666666"/>
<path d="M163.507 162.556C162.481 165.446 161.358 168.347 160.151 171.22C156.952 178.828 153.721 186.425 150.494 194.024C148.227 199.363 145.931 204.692 143.687 210.039C143.295 210.973 143.101 211.974 142.817 213.054C141.637 213.165 140.455 213.167 139.138 213.169C139.65 211.295 140.203 209.389 140.962 207.553C143.493 201.426 146.077 195.316 148.679 189.214C151.491 182.619 154.351 176.042 157.179 169.453C157.97 167.609 158.825 165.779 159.453 163.889C159.82 162.785 160.413 162.402 161.614 162.543C162.19 162.611 162.784 162.555 163.507 162.556Z" fill="#666666"/>
<path d="M174.654 162.556C174.138 164.352 173.564 166.166 172.82 167.922C170.178 174.156 167.464 180.367 164.801 186.595C161.467 194.392 158.145 202.194 154.849 210.005C154.455 210.939 154.256 211.939 153.97 213.014C152.771 213.083 151.567 213.047 150.254 212.862C150.365 211.95 150.505 211.16 150.817 210.43C153.526 204.079 156.274 197.743 158.994 191.396C162.188 183.942 165.387 176.49 168.537 169.021C169.433 166.896 170.168 164.716 170.976 162.561C172.157 162.557 173.338 162.553 174.654 162.556Z" fill="#666666"/>
<path d="M170.841 162.556C170.168 164.716 169.433 166.896 168.537 169.021C165.387 176.49 162.188 183.942 158.994 191.396C156.274 197.743 153.526 204.079 150.817 210.43C150.505 211.16 150.365 211.95 150.141 212.822C149.058 213.008 147.979 213.083 146.769 213.154C147.263 211.317 147.78 209.447 148.535 207.659C152.065 199.289 155.655 190.94 159.235 182.587C161.724 176.78 164.241 170.983 166.718 165.172C167.046 164.401 167.212 163.573 167.455 162.666C168.539 162.557 169.622 162.554 170.841 162.556Z" fill="#666666"/>
<path d="M167.597 213.1C168.165 211.127 168.797 209.154 169.58 207.23C171.224 203.192 172.93 199.174 174.643 195.16C176.217 191.47 177.86 187.804 179.428 184.112C181.762 178.614 184.065 173.106 186.365 167.596C187.032 166 187.643 164.386 188.282 162.674C189.366 162.557 190.45 162.546 191.655 162.648C189.137 168.946 186.493 175.128 183.86 181.314C180.236 189.828 176.603 198.339 173.014 206.866C172.156 208.906 171.46 211.003 170.689 213.073C169.702 213.089 168.715 213.106 167.597 213.1Z" fill="#666666"/>
<path d="M170.82 213.096C171.46 211.003 172.156 208.906 173.015 206.866C176.603 198.339 180.236 189.828 183.86 181.314C186.493 175.128 189.137 168.946 191.789 162.666C192.595 162.554 193.387 162.539 194.311 162.542C194.442 162.56 194.439 162.69 194.438 162.858C193.575 165.219 192.767 167.43 191.843 169.602C188.508 177.436 185.124 185.254 181.777 193.085C179.326 198.821 176.89 204.564 174.479 210.315C174.107 211.204 173.903 212.15 173.621 213.07C172.731 213.086 171.841 213.103 170.82 213.096Z" fill="#666666"/>
<path d="M137.698 207.909C138.407 208.474 137.993 208.844 137.266 209.167C137.314 208.77 137.47 208.371 137.698 207.909Z" fill="#666666"/>
<path d="M140.03 202.988C139.925 203.419 139.731 203.902 139.432 204.405C139.531 203.963 139.736 203.502 140.03 202.988Z" fill="#666666"/>
</svg>
