<?xml version="1.0" standalone="no"?>
<!DOCTYPE svg PUBLIC "-//W3C//DTD SVG 20010904//EN"
 "http://www.w3.org/TR/2001/REC-SVG-20010904/DTD/svg10.dtd">
<svg version="1.0" xmlns="http://www.w3.org/2000/svg"
 width="512.000000pt" height="512.000000pt" viewBox="0 0 512.000000 512.000000"
 preserveAspectRatio="xMidYMid meet">

<g transform="translate(0.000000,512.000000) scale(0.100000,-0.100000)"
fill="#FFFFFF" stroke="none">
<path d="M1571 5109 c-24 -5 -71 -21 -105 -37 -65 -31 -713 -467 -783 -527
-95 -81 -176 -243 -204 -409 -19 -111 -6 -385 25 -531 134 -636 533 -1430
1097 -2182 595 -792 1214 -1311 1681 -1407 97 -20 246 -21 323 -1 95 24 168
67 525 309 341 232 398 277 451 356 71 107 89 273 40 373 -15 31 -161 200
-415 480 -216 238 -410 447 -431 466 -22 19 -69 48 -105 65 -60 29 -73 31
-175 31 -139 0 -156 -7 -410 -180 l-188 -127 -57 4 c-332 24 -921 842 -898
1248 3 50 9 77 24 97 12 15 99 81 195 145 96 65 193 136 216 158 55 51 100
121 119 187 18 63 20 182 4 243 -15 57 -511 1080 -545 1124 -75 98 -232 145
-384 115z m162 -243 c30 -12 51 -50 285 -532 242 -499 252 -522 252 -578 0
-100 -19 -122 -242 -273 -106 -72 -207 -146 -225 -165 -138 -145 -136 -416 7
-746 206 -475 605 -913 919 -1006 74 -22 188 -21 248 2 27 10 129 72 228 139
99 66 194 127 212 136 46 24 120 21 168 -6 36 -20 204 -200 693 -740 123 -138
132 -150 132 -187 0 -50 -27 -105 -72 -146 -56 -53 -690 -477 -748 -501 -157
-65 -406 2 -683 183 -712 465 -1601 1648 -2000 2660 -130 329 -185 558 -194
800 -8 220 24 346 113 441 44 47 707 498 763 518 47 18 104 18 144 1z"/>
</g>
</svg>
