<svg width="279" height="84" viewBox="0 0 279 84" fill="none" xmlns="http://www.w3.org/2000/svg">
<path d="M1.36 52.96C0.986667 52.5867 0.72 52.32 0.56 52.16V51.92C0.56 51.3333 0.826667 50.48 1.36 49.36L22.88 2.32C23.2533 1.89333 23.6267 1.49333 24 1.12C28.96 0.799996 33.84 0.639997 38.64 0.639997L46.72 0.719995C47.68 0.719995 48.3733 1.12 48.8 1.92C50.1867 4.64 51.68 8 53.28 12C55.4133 17.0133 56.88 20.4 57.68 22.16L70.24 52.16C70.24 53.0133 69.5733 53.44 68.24 53.44L54.08 53.04C51.9467 52.9867 50.4267 52.96 49.52 52.96C48.88 52.8533 48.2133 52.2667 47.52 51.2C46.72 49.92 46.24 49.1467 46.08 48.88C45.5467 48.3467 43.28 48.08 39.28 48.08C37.5733 48.08 35.0133 48.16 31.6 48.32C28.24 48.4267 25.7067 48.48 24 48.48C23.2533 48.9067 22.4533 50.2667 21.6 52.56C20.9067 53.2 19.76 53.52 18.16 53.52C16.3467 53.52 10.7467 53.3333 1.36 52.96ZM29.68 33.36C29.68 34.0533 29.8933 34.4 30.32 34.4C30.48 34.4 30.6933 34.4 30.96 34.4C31.2267 34.3467 31.44 34.32 31.6 34.32C36.5067 34.32 37.9467 34.3467 35.92 34.4C38.2667 34.3467 39.44 34 39.44 33.36C39.44 32.4533 38.72 30.3733 37.28 27.12C35.8933 23.8133 34.9333 22.16 34.4 22.16C33.7067 22.16 32.72 23.84 31.44 27.2C30.2667 30.2933 29.68 32.3467 29.68 33.36ZM103.211 55.44C101.238 55.44 97.1313 55.04 90.8913 54.24C77.6646 52.48 71.0513 44.7733 71.0513 31.12C71.0513 27.9733 71.1046 23.2533 71.2113 16.96C71.3713 10.6667 71.4513 5.92 71.4513 2.72C72.1979 1.97333 72.7313 1.6 73.0513 1.6H90.4913C91.5579 1.6 92.0913 2.13333 92.0913 3.2V33.12C92.0913 36 93.2913 38.2667 95.6913 39.92C97.7713 41.36 100.278 42.08 103.211 42.08C106.785 42.08 109.505 41.0133 111.371 38.88C113.238 36.6933 114.171 32.48 114.171 26.24C114.171 22.1333 114.171 19.0667 114.171 17.04L114.411 2.72L115.131 2C119.505 1.68 122.838 1.52 125.131 1.52C127.905 1.52 130.945 1.68 134.251 2C134.785 3.01333 135.051 5.97333 135.051 10.88V31.12C134.571 31.6533 134.278 32.9333 134.171 34.96C134.011 37.6267 133.905 39.04 133.851 39.2C131.398 50.0267 121.185 55.44 103.211 55.44ZM141.04 39.76C141.04 39.12 141.467 38.64 142.32 38.32H168.24C168.773 38.32 169.413 38.64 170.16 39.28C171.067 40.08 171.627 40.56 171.84 40.72C173.067 41.2533 175.2 41.52 178.24 41.52C181.867 41.52 183.68 40.4533 183.68 38.32C183.68 36.6667 182.187 35.7067 179.2 35.44C173.76 35.0133 169.707 34.6933 167.04 34.48C154.933 33.36 147.093 30.6133 143.52 26.24C142.24 24.64 141.547 23.2533 141.44 22.08C141.44 21.44 141.44 20.5067 141.44 19.28C141.44 16.0267 142 13.3867 143.12 11.36C147.173 3.89333 157.973 0.159998 175.52 0.159998C190.453 0.159998 200.187 3.65333 204.72 10.64C206.053 12.6667 206.72 14.2667 206.72 15.44C206.72 15.6533 206.32 15.9733 205.52 16.4H197.44L184.48 16.08C182.88 16.0267 181.787 16 181.2 16C180.4 15.7867 179.147 15.1467 177.44 14.08C176.053 13.1733 174.267 12.72 172.08 12.72C167.813 12.72 165.68 13.68 165.68 15.6C165.68 17.04 167.067 17.9733 169.84 18.4C177.52 19.4133 182.88 20.08 185.92 20.4C192.107 21.04 196.4 21.8667 198.8 22.88C205.147 25.44 208.32 30 208.32 36.56C208.32 42.8533 205.68 47.4133 200.4 50.24C196.987 52.0533 191.547 53.4133 184.08 54.32C180.293 54.7467 176.96 54.96 174.08 54.96C166.293 54.96 160.48 54.48 156.64 53.52C150.453 51.9733 145.813 48.7733 142.72 43.92C141.6 42.16 141.04 40.7733 141.04 39.76ZM210.11 52.96C209.737 52.5867 209.47 52.32 209.31 52.16V51.92C209.31 51.3333 209.577 50.48 210.11 49.36L231.63 2.32C232.003 1.89333 232.377 1.49333 232.75 1.12C237.71 0.799996 242.59 0.639997 247.39 0.639997L255.47 0.719995C256.43 0.719995 257.123 1.12 257.55 1.92C258.937 4.64 260.43 8 262.03 12C264.163 17.0133 265.63 20.4 266.43 22.16L278.99 52.16C278.99 53.0133 278.323 53.44 276.99 53.44L262.83 53.04C260.697 52.9867 259.177 52.96 258.27 52.96C257.63 52.8533 256.963 52.2667 256.27 51.2C255.47 49.92 254.99 49.1467 254.83 48.88C254.297 48.3467 252.03 48.08 248.03 48.08C246.323 48.08 243.763 48.16 240.35 48.32C236.99 48.4267 234.457 48.48 232.75 48.48C232.003 48.9067 231.203 50.2667 230.35 52.56C229.657 53.2 228.51 53.52 226.91 53.52C225.097 53.52 219.497 53.3333 210.11 52.96ZM238.43 33.36C238.43 34.0533 238.643 34.4 239.07 34.4C239.23 34.4 239.443 34.4 239.71 34.4C239.977 34.3467 240.19 34.32 240.35 34.32C245.257 34.32 246.697 34.3467 244.67 34.4C247.017 34.3467 248.19 34 248.19 33.36C248.19 32.4533 247.47 30.3733 246.03 27.12C244.643 23.8133 243.683 22.16 243.15 22.16C242.457 22.16 241.47 23.84 240.19 27.2C239.017 30.2933 238.43 32.3467 238.43 33.36Z" fill="#363636"/>
<mask id="path-2-outside-1_0_1" maskUnits="userSpaceOnUse" x="69" y="60" width="140" height="24" fill="black">
<rect fill="white" x="69" y="60" width="140" height="24"/>
<path d="M72.43 70.75H81.04V72.73H72.43V80.02H82.27V82H70.45V61.48H82.27V63.46H72.43V70.75ZM93.5725 82.15C91.6525 82.15 90.1625 81.68 89.1025 80.74C88.0425 79.78 87.4125 78.2 87.2125 76H89.2825C89.4425 77.54 89.8725 78.62 90.5725 79.24C91.2725 79.86 92.2725 80.17 93.5725 80.17C94.8925 80.17 95.9225 79.87 96.6625 79.27C97.4025 78.65 97.7725 77.84 97.7725 76.84C97.7725 74.84 96.6925 73.5 94.5325 72.82L92.3125 72.04C89.1925 71.08 87.6325 69.25 87.6325 66.55C87.6325 65.57 87.8725 64.69 88.3525 63.91C88.8525 63.11 89.5425 62.48 90.4225 62.02C91.3025 61.56 92.3025 61.33 93.4225 61.33C95.1825 61.33 96.5625 61.79 97.5625 62.71C98.5825 63.61 99.1925 65.08 99.3925 67.12H97.4725C97.3125 65.74 96.9025 64.76 96.2425 64.18C95.5825 63.6 94.6425 63.31 93.4225 63.31C92.2825 63.31 91.3625 63.62 90.6625 64.24C89.9625 64.84 89.6125 65.61 89.6125 66.55C89.6125 67.43 89.8625 68.16 90.3625 68.74C90.8825 69.3 91.7825 69.79 93.0625 70.21L95.2825 70.99C96.7625 71.47 97.8725 72.21 98.6125 73.21C99.3725 74.21 99.7525 75.42 99.7525 76.84C99.7525 77.84 99.4925 78.75 98.9725 79.57C98.4725 80.37 97.7525 81 96.8125 81.46C95.8925 81.92 94.8125 82.15 93.5725 82.15ZM112.525 63.31V82H110.545V63.31H105.145V61.48H117.955V63.31H112.525ZM129.348 82.15C128.888 82.15 128.508 82.01 128.208 81.73C127.908 81.43 127.758 81.06 127.758 80.62C127.758 80.2 127.908 79.85 128.208 79.57C128.508 79.29 128.888 79.15 129.348 79.15C129.788 79.15 130.158 79.29 130.458 79.57C130.778 79.85 130.938 80.2 130.938 80.62C130.938 81.06 130.778 81.43 130.458 81.73C130.158 82.01 129.788 82.15 129.348 82.15ZM153.73 82H141.97V80.02H147.07V67.57H142.24V65.59H147.07V61.48H149.05V80.02H153.73V82ZM167.373 71.41C168.573 71.73 169.503 72.37 170.163 73.33C170.823 74.27 171.153 75.37 171.153 76.63C171.153 78.37 170.593 79.73 169.473 80.71C168.353 81.67 166.863 82.15 165.003 82.15C163.143 82.15 161.653 81.67 160.533 80.71C159.413 79.73 158.853 78.37 158.853 76.63C158.853 75.37 159.173 74.27 159.812 73.33C160.473 72.37 161.413 71.73 162.633 71.41C161.573 71.05 160.773 70.45 160.233 69.61C159.693 68.75 159.423 67.74 159.423 66.58C159.423 65.58 159.643 64.69 160.083 63.91C160.543 63.11 161.193 62.48 162.033 62.02C162.873 61.56 163.863 61.33 165.003 61.33C166.143 61.33 167.133 61.56 167.973 62.02C168.813 62.48 169.453 63.11 169.893 63.91C170.353 64.69 170.583 65.58 170.583 66.58C170.583 67.76 170.313 68.77 169.773 69.61C169.233 70.45 168.433 71.05 167.373 71.41ZM161.403 66.85C161.403 67.97 161.723 68.88 162.363 69.58C163.003 70.28 163.883 70.63 165.003 70.63C166.123 70.63 167.003 70.28 167.643 69.58C168.283 68.86 168.603 67.95 168.603 66.85C168.603 65.75 168.283 64.87 167.643 64.21C167.003 63.53 166.123 63.19 165.003 63.19C163.883 63.19 163.003 63.53 162.363 64.21C161.723 64.87 161.403 65.75 161.403 66.85ZM165.003 80.17C166.283 80.17 167.293 79.83 168.033 79.15C168.793 78.45 169.173 77.45 169.173 76.15C169.173 74.91 168.793 73.94 168.033 73.24C167.273 72.52 166.263 72.16 165.003 72.16C163.783 72.16 162.783 72.51 162.003 73.21C161.223 73.91 160.833 74.89 160.833 76.15C160.833 77.45 161.203 78.45 161.943 79.15C162.703 79.83 163.723 80.17 165.003 80.17ZM182.635 61.33C186.955 61.33 189.115 64.78 189.115 71.68C189.115 75.44 188.525 78.13 187.345 79.75C186.165 81.35 184.615 82.15 182.695 82.15C181.095 82.15 179.795 81.69 178.795 80.77C177.815 79.83 177.215 78.47 176.995 76.69H179.065C179.425 79.01 180.655 80.17 182.755 80.17C184.075 80.17 185.125 79.61 185.905 78.49C186.705 77.35 187.105 75.31 187.105 72.37V71.62C186.345 73.6 184.805 74.59 182.485 74.59C180.805 74.59 179.425 74.03 178.345 72.91C177.285 71.77 176.755 70.13 176.755 67.99C176.755 65.87 177.295 64.23 178.375 63.07C179.455 61.91 180.875 61.33 182.635 61.33ZM182.635 72.64C183.915 72.64 184.935 72.26 185.695 71.5C186.475 70.72 186.865 69.55 186.865 67.99C186.705 66.23 186.235 65.01 185.455 64.33C184.695 63.65 183.755 63.31 182.635 63.31C181.395 63.31 180.435 63.69 179.755 64.45C179.075 65.21 178.735 66.39 178.735 67.99C178.735 69.57 179.075 70.74 179.755 71.5C180.435 72.26 181.395 72.64 182.635 72.64ZM207.168 82H195.408V80.02H200.507V67.57H195.678V65.59H200.507V61.48H202.488V80.02H207.168V82Z"/>
</mask>
<path d="M72.43 70.75H81.04V72.73H72.43V80.02H82.27V82H70.45V61.48H82.27V63.46H72.43V70.75ZM93.5725 82.15C91.6525 82.15 90.1625 81.68 89.1025 80.74C88.0425 79.78 87.4125 78.2 87.2125 76H89.2825C89.4425 77.54 89.8725 78.62 90.5725 79.24C91.2725 79.86 92.2725 80.17 93.5725 80.17C94.8925 80.17 95.9225 79.87 96.6625 79.27C97.4025 78.65 97.7725 77.84 97.7725 76.84C97.7725 74.84 96.6925 73.5 94.5325 72.82L92.3125 72.04C89.1925 71.08 87.6325 69.25 87.6325 66.55C87.6325 65.57 87.8725 64.69 88.3525 63.91C88.8525 63.11 89.5425 62.48 90.4225 62.02C91.3025 61.56 92.3025 61.33 93.4225 61.33C95.1825 61.33 96.5625 61.79 97.5625 62.71C98.5825 63.61 99.1925 65.08 99.3925 67.12H97.4725C97.3125 65.74 96.9025 64.76 96.2425 64.18C95.5825 63.6 94.6425 63.31 93.4225 63.31C92.2825 63.31 91.3625 63.62 90.6625 64.24C89.9625 64.84 89.6125 65.61 89.6125 66.55C89.6125 67.43 89.8625 68.16 90.3625 68.74C90.8825 69.3 91.7825 69.79 93.0625 70.21L95.2825 70.99C96.7625 71.47 97.8725 72.21 98.6125 73.21C99.3725 74.21 99.7525 75.42 99.7525 76.84C99.7525 77.84 99.4925 78.75 98.9725 79.57C98.4725 80.37 97.7525 81 96.8125 81.46C95.8925 81.92 94.8125 82.15 93.5725 82.15ZM112.525 63.31V82H110.545V63.31H105.145V61.48H117.955V63.31H112.525ZM129.348 82.15C128.888 82.15 128.508 82.01 128.208 81.73C127.908 81.43 127.758 81.06 127.758 80.62C127.758 80.2 127.908 79.85 128.208 79.57C128.508 79.29 128.888 79.15 129.348 79.15C129.788 79.15 130.158 79.29 130.458 79.57C130.778 79.85 130.938 80.2 130.938 80.62C130.938 81.06 130.778 81.43 130.458 81.73C130.158 82.01 129.788 82.15 129.348 82.15ZM153.73 82H141.97V80.02H147.07V67.57H142.24V65.59H147.07V61.48H149.05V80.02H153.73V82ZM167.373 71.41C168.573 71.73 169.503 72.37 170.163 73.33C170.823 74.27 171.153 75.37 171.153 76.63C171.153 78.37 170.593 79.73 169.473 80.71C168.353 81.67 166.863 82.15 165.003 82.15C163.143 82.15 161.653 81.67 160.533 80.71C159.413 79.73 158.853 78.37 158.853 76.63C158.853 75.37 159.173 74.27 159.812 73.33C160.473 72.37 161.413 71.73 162.633 71.41C161.573 71.05 160.773 70.45 160.233 69.61C159.693 68.75 159.423 67.74 159.423 66.58C159.423 65.58 159.643 64.69 160.083 63.91C160.543 63.11 161.193 62.48 162.033 62.02C162.873 61.56 163.863 61.33 165.003 61.33C166.143 61.33 167.133 61.56 167.973 62.02C168.813 62.48 169.453 63.11 169.893 63.91C170.353 64.69 170.583 65.58 170.583 66.58C170.583 67.76 170.313 68.77 169.773 69.61C169.233 70.45 168.433 71.05 167.373 71.41ZM161.403 66.85C161.403 67.97 161.723 68.88 162.363 69.58C163.003 70.28 163.883 70.63 165.003 70.63C166.123 70.63 167.003 70.28 167.643 69.58C168.283 68.86 168.603 67.95 168.603 66.85C168.603 65.75 168.283 64.87 167.643 64.21C167.003 63.53 166.123 63.19 165.003 63.19C163.883 63.19 163.003 63.53 162.363 64.21C161.723 64.87 161.403 65.75 161.403 66.85ZM165.003 80.17C166.283 80.17 167.293 79.83 168.033 79.15C168.793 78.45 169.173 77.45 169.173 76.15C169.173 74.91 168.793 73.94 168.033 73.24C167.273 72.52 166.263 72.16 165.003 72.16C163.783 72.16 162.783 72.51 162.003 73.21C161.223 73.91 160.833 74.89 160.833 76.15C160.833 77.45 161.203 78.45 161.943 79.15C162.703 79.83 163.723 80.17 165.003 80.17ZM182.635 61.33C186.955 61.33 189.115 64.78 189.115 71.68C189.115 75.44 188.525 78.13 187.345 79.75C186.165 81.35 184.615 82.15 182.695 82.15C181.095 82.15 179.795 81.69 178.795 80.77C177.815 79.83 177.215 78.47 176.995 76.69H179.065C179.425 79.01 180.655 80.17 182.755 80.17C184.075 80.17 185.125 79.61 185.905 78.49C186.705 77.35 187.105 75.31 187.105 72.37V71.62C186.345 73.6 184.805 74.59 182.485 74.59C180.805 74.59 179.425 74.03 178.345 72.91C177.285 71.77 176.755 70.13 176.755 67.99C176.755 65.87 177.295 64.23 178.375 63.07C179.455 61.91 180.875 61.33 182.635 61.33ZM182.635 72.64C183.915 72.64 184.935 72.26 185.695 71.5C186.475 70.72 186.865 69.55 186.865 67.99C186.705 66.23 186.235 65.01 185.455 64.33C184.695 63.65 183.755 63.31 182.635 63.31C181.395 63.31 180.435 63.69 179.755 64.45C179.075 65.21 178.735 66.39 178.735 67.99C178.735 69.57 179.075 70.74 179.755 71.5C180.435 72.26 181.395 72.64 182.635 72.64ZM207.168 82H195.408V80.02H200.507V67.57H195.678V65.59H200.507V61.48H202.488V80.02H207.168V82Z" fill="#373737"/>
<path d="M72.43 70.75H71.43V71.75H72.43V70.75ZM81.04 70.75H82.04V69.75H81.04V70.75ZM81.04 72.73V73.73H82.04V72.73H81.04ZM72.43 72.73V71.73H71.43V72.73H72.43ZM72.43 80.02H71.43V81.02H72.43V80.02ZM82.27 80.02H83.27V79.02H82.27V80.02ZM82.27 82V83H83.27V82H82.27ZM70.45 82H69.45V83H70.45V82ZM70.45 61.48V60.48H69.45V61.48H70.45ZM82.27 61.48H83.27V60.48H82.27V61.48ZM82.27 63.46V64.46H83.27V63.46H82.27ZM72.43 63.46V62.46H71.43V63.46H72.43ZM72.43 71.75H81.04V69.75H72.43V71.75ZM80.04 70.75V72.73H82.04V70.75H80.04ZM81.04 71.73H72.43V73.73H81.04V71.73ZM71.43 72.73V80.02H73.43V72.73H71.43ZM72.43 81.02H82.27V79.02H72.43V81.02ZM81.27 80.02V82H83.27V80.02H81.27ZM82.27 81H70.45V83H82.27V81ZM71.45 82V61.48H69.45V82H71.45ZM70.45 62.48H82.27V60.48H70.45V62.48ZM81.27 61.48V63.46H83.27V61.48H81.27ZM82.27 62.46H72.43V64.46H82.27V62.46ZM71.43 63.46V70.75H73.43V63.46H71.43ZM89.1025 80.74L88.4312 81.4812L88.439 81.4882L89.1025 80.74ZM87.2125 76V75H86.1175L86.2166 76.0905L87.2125 76ZM89.2825 76L90.2771 75.8967L90.184 75H89.2825V76ZM90.5725 79.24L89.9095 79.9886H89.9095L90.5725 79.24ZM96.6625 79.27L97.2923 80.0468L97.2986 80.0417L97.3047 80.0365L96.6625 79.27ZM94.5325 72.82L94.201 73.7635L94.2165 73.7689L94.2322 73.7738L94.5325 72.82ZM92.3125 72.04L92.644 71.0965L92.6254 71.09L92.6066 71.0842L92.3125 72.04ZM88.3525 63.91L87.5045 63.38L87.5008 63.3859L88.3525 63.91ZM97.5625 62.71L96.8854 63.4459L96.8931 63.453L96.9009 63.4598L97.5625 62.71ZM99.3925 67.12V68.12H100.495L100.388 67.0224L99.3925 67.12ZM97.4725 67.12L96.4792 67.2352L96.5817 68.12H97.4725V67.12ZM96.2425 64.18L96.9026 63.4288L96.2425 64.18ZM90.6625 64.24L91.3133 64.9993L91.3195 64.994L91.3255 64.9886L90.6625 64.24ZM90.3625 68.74L89.6051 69.3929L89.6171 69.4069L89.6297 69.4205L90.3625 68.74ZM93.0625 70.21L93.394 69.2665L93.3842 69.2631L93.3743 69.2598L93.0625 70.21ZM95.2825 70.99L94.951 71.9335L94.9625 71.9375L94.974 71.9412L95.2825 70.99ZM98.6125 73.21L97.8086 73.8049L97.8163 73.8151L98.6125 73.21ZM98.9725 79.57L98.128 79.0344L98.1245 79.04L98.9725 79.57ZM96.8125 81.46L96.3729 80.5618L96.3653 80.5656L96.8125 81.46ZM93.5725 81.15C91.8094 81.15 90.5867 80.7196 89.766 79.9918L88.439 81.4882C89.7383 82.6404 91.4956 83.15 93.5725 83.15V81.15ZM89.7738 79.9988C88.9787 79.2787 88.3976 77.9909 88.2084 75.9095L86.2166 76.0905C86.4274 78.4091 87.1063 80.2813 88.4312 81.4812L89.7738 79.9988ZM87.2125 77H89.2825V75H87.2125V77ZM88.2879 76.1033C88.4578 77.7394 88.9322 79.123 89.9095 79.9886L91.2355 78.4914C90.8128 78.117 90.4272 77.3406 90.2771 75.8967L88.2879 76.1033ZM89.9095 79.9886C90.8529 80.8242 92.1235 81.17 93.5725 81.17V79.17C92.4215 79.17 91.6921 78.8958 91.2355 78.4914L89.9095 79.9886ZM93.5725 81.17C95.0344 81.17 96.3164 80.838 97.2923 80.0468L96.0327 78.4932C95.5286 78.902 94.7506 79.17 93.5725 79.17V81.17ZM97.3047 80.0365C98.2807 79.2188 98.7725 78.1237 98.7725 76.84H96.7725C96.7725 77.5563 96.5243 78.0812 96.0203 78.5035L97.3047 80.0365ZM98.7725 76.84C98.7725 75.6505 98.447 74.5833 97.7411 73.7075C97.0438 72.8423 96.0424 72.247 94.8328 71.8661L94.2322 73.7738C95.1826 74.073 95.8012 74.4877 96.1839 74.9625C96.5581 75.4267 96.7725 76.0295 96.7725 76.84H98.7725ZM94.864 71.8765L92.644 71.0965L91.981 72.9835L94.201 73.7635L94.864 71.8765ZM92.6066 71.0842C91.1653 70.6407 90.1835 70.0261 89.5635 69.2988C88.9568 68.5871 88.6325 67.6934 88.6325 66.55H86.6325C86.6325 68.1066 87.0882 69.4779 88.0415 70.5962C88.9815 71.6989 90.3397 72.4793 92.0184 72.9958L92.6066 71.0842ZM88.6325 66.55C88.6325 65.7416 88.828 65.0454 89.2042 64.4341L87.5008 63.3859C86.917 64.3346 86.6325 65.3984 86.6325 66.55H88.6325ZM89.2005 64.44C89.6012 63.7989 90.1548 63.2883 90.8858 62.9062L89.9592 61.1338C88.9302 61.6717 88.1038 62.4211 87.5045 63.38L89.2005 64.44ZM90.8858 62.9062C91.6054 62.5301 92.443 62.33 93.4225 62.33V60.33C92.162 60.33 90.9996 60.5899 89.9592 61.1338L90.8858 62.9062ZM93.4225 62.33C95.008 62.33 96.1194 62.7412 96.8854 63.4459L98.2396 61.9741C97.0056 60.8388 95.357 60.33 93.4225 60.33V62.33ZM96.9009 63.4598C97.6545 64.1248 98.2097 65.3048 98.3973 67.2176L100.388 67.0224C100.175 64.8552 99.5105 63.0952 98.2241 61.9602L96.9009 63.4598ZM99.3925 66.12H97.4725V68.12H99.3925V66.12ZM98.4658 67.0048C98.2931 65.5151 97.8308 64.2445 96.9026 63.4288L95.5824 64.9312C95.9742 65.2755 96.3319 65.9649 96.4792 67.2352L98.4658 67.0048ZM96.9026 63.4288C95.9999 62.6356 94.7912 62.31 93.4225 62.31V64.31C94.4938 64.31 95.1651 64.5644 95.5824 64.9312L96.9026 63.4288ZM93.4225 62.31C92.0942 62.31 90.9203 62.6758 89.9995 63.4914L91.3255 64.9886C91.8047 64.5642 92.4708 64.31 93.4225 64.31V62.31ZM90.0117 63.4807C89.0851 64.275 88.6125 65.3246 88.6125 66.55H90.6125C90.6125 65.8954 90.8399 65.405 91.3133 64.9993L90.0117 63.4807ZM88.6125 66.55C88.6125 67.6317 88.9255 68.6046 89.6051 69.3929L91.1199 68.0871C90.7995 67.7154 90.6125 67.2283 90.6125 66.55H88.6125ZM89.6297 69.4205C90.3224 70.1664 91.4157 70.7221 92.7507 71.1602L93.3743 69.2598C92.1493 68.8579 91.4426 68.4336 91.0953 68.0595L89.6297 69.4205ZM92.731 71.1535L94.951 71.9335L95.614 70.0465L93.394 69.2665L92.731 71.1535ZM94.974 71.9412C96.3059 72.3732 97.2207 73.0102 97.8087 73.8048L99.4163 72.6152C98.5243 71.4098 97.2191 70.5668 95.591 70.0388L94.974 71.9412ZM97.8163 73.8151C98.4271 74.6187 98.7525 75.6086 98.7525 76.84H100.753C100.753 75.2314 100.318 73.8013 99.4087 72.6049L97.8163 73.8151ZM98.7525 76.84C98.7525 77.6563 98.5433 78.3796 98.128 79.0345L99.817 80.1055C100.442 79.1204 100.753 78.0237 100.753 76.84H98.7525ZM98.1245 79.04C97.7342 79.6645 97.164 80.1747 96.3729 80.5618L97.2521 82.3582C98.341 81.8253 99.2108 81.0755 99.8205 80.1L98.1245 79.04ZM96.3653 80.5656C95.6098 80.9433 94.6888 81.15 93.5725 81.15V83.15C94.9362 83.15 96.1752 82.8967 97.2597 82.3544L96.3653 80.5656ZM112.525 63.31V62.31H111.525V63.31H112.525ZM112.525 82V83H113.525V82H112.525ZM110.545 82H109.545V83H110.545V82ZM110.545 63.31H111.545V62.31H110.545V63.31ZM105.145 63.31H104.145V64.31H105.145V63.31ZM105.145 61.48V60.48H104.145V61.48H105.145ZM117.955 61.48H118.955V60.48H117.955V61.48ZM117.955 63.31V64.31H118.955V63.31H117.955ZM111.525 63.31V82H113.525V63.31H111.525ZM112.525 81H110.545V83H112.525V81ZM111.545 82V63.31H109.545V82H111.545ZM110.545 62.31H105.145V64.31H110.545V62.31ZM106.145 63.31V61.48H104.145V63.31H106.145ZM105.145 62.48H117.955V60.48H105.145V62.48ZM116.955 61.48V63.31H118.955V61.48H116.955ZM117.955 62.31H112.525V64.31H117.955V62.31ZM128.208 81.73L127.5 82.4371L127.513 82.4493L127.525 82.4611L128.208 81.73ZM128.208 79.57L127.525 78.8389L128.208 79.57ZM130.458 79.57L129.775 80.3011L129.787 80.312L129.799 80.3226L130.458 79.57ZM130.458 81.73L131.14 82.4611L131.141 82.4595L130.458 81.73ZM129.347 81.15C129.108 81.15 128.982 81.0848 128.89 80.9989L127.525 82.4611C128.033 82.9352 128.667 83.15 129.347 83.15V81.15ZM128.915 81.0229C128.81 80.9181 128.757 80.8058 128.757 80.62H126.757C126.757 81.3142 127.005 81.9419 127.5 82.4371L128.915 81.0229ZM128.757 80.62C128.757 80.4698 128.798 80.387 128.89 80.3011L127.525 78.8389C127.017 79.313 126.757 79.9302 126.757 80.62H128.757ZM128.89 80.3011C128.982 80.2152 129.108 80.15 129.347 80.15V78.15C128.667 78.15 128.033 78.3648 127.525 78.8389L128.89 80.3011ZM129.347 80.15C129.554 80.15 129.674 80.2071 129.775 80.3011L131.14 78.8389C130.641 78.3729 130.021 78.15 129.347 78.15V80.15ZM129.799 80.3226C129.905 80.4154 129.938 80.4924 129.938 80.62H131.938C131.938 79.9076 131.65 79.2846 131.116 78.8174L129.799 80.3226ZM129.938 80.62C129.938 80.7846 129.891 80.8902 129.774 81.0005L131.141 82.4595C131.664 81.9698 131.938 81.3354 131.938 80.62H129.938ZM129.775 80.9989C129.674 81.0929 129.554 81.15 129.347 81.15V83.15C130.021 83.15 130.641 82.9271 131.14 82.4611L129.775 80.9989ZM153.73 82V83H154.73V82H153.73ZM141.97 82H140.97V83H141.97V82ZM141.97 80.02V79.02H140.97V80.02H141.97ZM147.07 80.02V81.02H148.07V80.02H147.07ZM147.07 67.57H148.07V66.57H147.07V67.57ZM142.24 67.57H141.24V68.57H142.24V67.57ZM142.24 65.59V64.59H141.24V65.59H142.24ZM147.07 65.59V66.59H148.07V65.59H147.07ZM147.07 61.48V60.48H146.07V61.48H147.07ZM149.05 61.48H150.05V60.48H149.05V61.48ZM149.05 80.02H148.05V81.02H149.05V80.02ZM153.73 80.02H154.73V79.02H153.73V80.02ZM153.73 81H141.97V83H153.73V81ZM142.97 82V80.02H140.97V82H142.97ZM141.97 81.02H147.07V79.02H141.97V81.02ZM148.07 80.02V67.57H146.07V80.02H148.07ZM147.07 66.57H142.24V68.57H147.07V66.57ZM143.24 67.57V65.59H141.24V67.57H143.24ZM142.24 66.59H147.07V64.59H142.24V66.59ZM148.07 65.59V61.48H146.07V65.59H148.07ZM147.07 62.48H149.05V60.48H147.07V62.48ZM148.05 61.48V80.02H150.05V61.48H148.05ZM149.05 81.02H153.73V79.02H149.05V81.02ZM152.73 80.02V82H154.73V80.02H152.73ZM167.372 71.41L167.051 70.4631L163.924 71.5252L167.115 72.3762L167.372 71.41ZM170.162 73.33L169.338 73.8966L169.344 73.9046L170.162 73.33ZM169.473 80.71L170.123 81.4693L170.131 81.4626L169.473 80.71ZM160.533 80.71L159.874 81.4626L159.882 81.4693L160.533 80.71ZM159.812 73.33L158.988 72.7635L158.986 72.7672L159.812 73.33ZM162.632 71.41L162.886 72.3773L166.105 71.5331L162.954 70.4631L162.632 71.41ZM160.232 69.61L159.386 70.1418L159.391 70.1508L160.232 69.61ZM160.082 63.91L159.216 63.4115L159.212 63.4187L160.082 63.91ZM162.033 62.02L162.513 62.8971L162.033 62.02ZM169.893 63.91L169.016 64.3919L169.024 64.4051L169.031 64.418L169.893 63.91ZM162.363 69.58L163.101 68.9052L162.363 69.58ZM167.643 69.58L168.381 70.2548L168.39 70.2444L167.643 69.58ZM167.643 64.21L166.914 64.8954L166.919 64.9008L166.925 64.9061L167.643 64.21ZM162.363 64.21L163.08 64.9061L163.086 64.9008L163.091 64.8954L162.363 64.21ZM168.033 79.15L168.709 79.8863L168.71 79.8855L168.033 79.15ZM168.033 73.24L167.345 73.966L167.355 73.9755L168.033 73.24ZM161.942 79.15L161.255 79.8765L161.265 79.886L161.276 79.8952L161.942 79.15ZM167.115 72.3762C168.101 72.6392 168.823 73.1466 169.338 73.8965L170.987 72.7635C170.182 71.5934 169.044 70.8208 167.63 70.4438L167.115 72.3762ZM169.344 73.9046C169.874 74.66 170.153 75.5547 170.153 76.63H172.153C172.153 75.1853 171.771 73.88 170.981 72.7554L169.344 73.9046ZM170.153 76.63C170.153 78.1354 169.68 79.2001 168.814 79.9574L170.131 81.4626C171.505 80.2599 172.153 78.6046 172.153 76.63H170.153ZM168.822 79.9507C167.926 80.7182 166.688 81.15 165.003 81.15V83.15C167.037 83.15 168.779 82.6218 170.123 81.4693L168.822 79.9507ZM165.003 81.15C163.317 81.15 162.079 80.7182 161.183 79.9507L159.882 81.4693C161.226 82.6218 162.968 83.15 165.003 83.15V81.15ZM161.191 79.9574C160.325 79.2001 159.853 78.1354 159.853 76.63H157.853C157.853 78.6046 158.5 80.2599 159.874 81.4626L161.191 79.9574ZM159.853 76.63C159.853 75.5482 160.124 74.6491 160.639 73.8928L158.986 72.7672C158.221 73.8909 157.853 75.1918 157.853 76.63H159.853ZM160.637 73.8965C161.149 73.1511 161.878 72.6419 162.886 72.3773L162.379 70.4427C160.947 70.8181 159.796 71.5889 158.988 72.7635L160.637 73.8965ZM162.954 70.4631C162.081 70.1665 161.477 69.696 161.074 69.0692L159.391 70.1508C160.068 71.204 161.064 71.9335 162.311 72.3569L162.954 70.4631ZM161.079 69.0782C160.653 68.3993 160.423 67.5793 160.423 66.58H158.423C158.423 67.9007 158.732 69.1007 159.386 70.1418L161.079 69.0782ZM160.423 66.58C160.423 65.7317 160.608 65.0145 160.953 64.4013L159.212 63.4187C158.677 64.3655 158.423 65.4283 158.423 66.58H160.423ZM160.949 64.4085C161.314 63.774 161.828 63.2723 162.513 62.8971L161.552 61.1429C160.557 61.6877 159.771 62.446 159.216 63.4115L160.949 64.4085ZM162.513 62.8971C163.18 62.5318 163.998 62.33 165.003 62.33V60.33C163.727 60.33 162.565 60.5882 161.552 61.1429L162.513 62.8971ZM165.003 62.33C166.007 62.33 166.825 62.5318 167.492 62.8971L168.453 61.1429C167.44 60.5882 166.278 60.33 165.003 60.33V62.33ZM167.492 62.8971C168.174 63.2704 168.673 63.767 169.016 64.3919L170.769 63.4281C170.232 62.453 169.451 61.6896 168.453 61.1429L167.492 62.8971ZM169.031 64.418C169.391 65.0284 169.583 65.7395 169.583 66.58H171.583C171.583 65.4205 171.314 64.3516 170.754 63.402L169.031 64.418ZM169.583 66.58C169.583 67.6036 169.35 68.4179 168.931 69.0692L170.614 70.1508C171.275 69.1221 171.583 67.9164 171.583 66.58H169.583ZM168.931 69.0692C168.528 69.696 167.924 70.1665 167.051 70.4631L167.694 72.3569C168.941 71.9335 169.937 71.204 170.614 70.1508L168.931 69.0692ZM160.402 66.85C160.402 68.1718 160.786 69.3379 161.624 70.2548L163.101 68.9052C162.659 68.4221 162.402 67.7682 162.402 66.85H160.402ZM161.624 70.2548C162.488 71.1996 163.657 71.63 165.003 71.63V69.63C164.108 69.63 163.517 69.3604 163.101 68.9052L161.624 70.2548ZM165.003 71.63C166.348 71.63 167.517 71.1996 168.381 70.2548L166.904 68.9052C166.488 69.3604 165.897 69.63 165.003 69.63V71.63ZM168.39 70.2444C169.216 69.3154 169.603 68.1578 169.603 66.85H167.603C167.603 67.7422 167.349 68.4046 166.895 68.9156L168.39 70.2444ZM169.603 66.85C169.603 65.5446 169.216 64.3962 168.36 63.5139L166.925 64.9061C167.349 65.3438 167.603 65.9554 167.603 66.85H169.603ZM168.371 63.5246C167.505 62.6043 166.339 62.19 165.003 62.19V64.19C165.906 64.19 166.5 64.4557 166.914 64.8954L168.371 63.5246ZM165.003 62.19C163.666 62.19 162.5 62.6043 161.634 63.5246L163.091 64.8954C163.505 64.4557 164.099 64.19 165.003 64.19V62.19ZM161.645 63.5139C160.789 64.3962 160.402 65.5446 160.402 66.85H162.402C162.402 65.9554 162.656 65.3438 163.08 64.9061L161.645 63.5139ZM165.003 81.17C166.462 81.17 167.738 80.7785 168.709 79.8863L167.356 78.4137C166.847 78.8815 166.103 79.17 165.003 79.17V81.17ZM168.71 79.8855C169.726 78.9496 170.173 77.6524 170.173 76.15H168.173C168.173 77.2476 167.859 77.9504 167.355 78.4145L168.71 79.8855ZM170.173 76.15C170.173 74.6912 169.716 73.4313 168.71 72.5045L167.355 73.9755C167.869 74.4487 168.173 75.1288 168.173 76.15H170.173ZM168.72 72.514C167.738 71.5834 166.463 71.16 165.003 71.16V73.16C166.062 73.16 166.807 73.4566 167.345 73.966L168.72 72.514ZM165.003 71.16C163.579 71.16 162.328 71.5745 161.335 72.4658L162.67 73.9542C163.237 73.4455 163.986 73.16 165.003 73.16V71.16ZM161.335 72.4658C160.301 73.3935 159.832 74.6685 159.832 76.15H161.832C161.832 75.1115 162.144 74.4265 162.67 73.9542L161.335 72.4658ZM159.832 76.15C159.832 77.6445 160.264 78.9387 161.255 79.8765L162.63 78.4235C162.141 77.9613 161.832 77.2555 161.832 76.15H159.832ZM161.276 79.8952C162.262 80.7781 163.542 81.17 165.003 81.17V79.17C163.903 79.17 163.143 78.8819 162.609 78.4048L161.276 79.8952ZM187.345 79.75L188.15 80.3436L188.153 80.3388L187.345 79.75ZM178.795 80.77L178.103 81.4917L178.11 81.4989L178.118 81.5059L178.795 80.77ZM176.995 76.69V75.69H175.864L176.003 76.8127L176.995 76.69ZM179.065 76.69L180.053 76.5367L179.922 75.69H179.065V76.69ZM185.905 78.49L185.086 77.9156L185.084 77.9185L185.905 78.49ZM187.105 71.62H188.105L186.171 71.2617L187.105 71.62ZM178.345 72.91L177.613 73.5909L177.619 73.5976L177.625 73.6041L178.345 72.91ZM178.375 63.07L177.643 62.3886L178.375 63.07ZM186.865 67.99H187.865V67.9446L187.861 67.8995L186.865 67.99ZM185.455 64.33L184.788 65.0753L184.798 65.0838L185.455 64.33ZM179.755 64.45L180.5 65.1168L179.755 64.45ZM179.755 71.5L180.5 70.8332L179.755 71.5ZM182.635 62.33C184.476 62.33 185.763 63.0361 186.647 64.4482C187.58 65.9384 188.115 68.302 188.115 71.68H190.115C190.115 68.158 189.57 65.3466 188.343 63.3868C187.067 61.3489 185.114 60.33 182.635 60.33V62.33ZM188.115 71.68C188.115 75.3878 187.523 77.8071 186.537 79.1612L188.153 80.3388C189.527 78.4529 190.115 75.4922 190.115 71.68H188.115ZM186.54 79.1565C185.541 80.5115 184.284 81.15 182.695 81.15V83.15C184.946 83.15 186.789 82.1885 188.15 80.3435L186.54 79.1565ZM182.695 81.15C181.298 81.15 180.255 80.7547 179.472 80.0341L178.118 81.5059C179.335 82.6253 180.892 83.15 182.695 83.15V81.15ZM179.487 80.0483C178.72 79.3123 178.188 78.1928 177.987 76.5673L176.003 76.8127C176.242 78.7472 176.91 80.3477 178.103 81.4917L179.487 80.0483ZM176.995 77.69H179.065V75.69H176.995V77.69ZM178.077 76.8433C178.278 78.1391 178.742 79.2455 179.571 80.0275C180.414 80.8224 181.515 81.17 182.755 81.17V79.17C181.895 79.17 181.331 78.9376 180.944 78.5725C180.543 78.1945 180.212 77.5609 180.053 76.5367L178.077 76.8433ZM182.755 81.17C184.415 81.17 185.766 80.4391 186.726 79.0615L185.084 77.9185C184.484 78.7809 183.735 79.17 182.755 79.17V81.17ZM186.724 79.0644C187.716 77.6507 188.105 75.3309 188.105 72.37H186.105C186.105 75.2891 185.694 77.0493 185.086 77.9156L186.724 79.0644ZM188.105 72.37V71.62H186.105V72.37H188.105ZM186.171 71.2617C185.855 72.0857 185.403 72.6439 184.839 73.0063C184.269 73.3732 183.504 73.59 182.485 73.59V75.59C183.786 75.59 184.951 75.3118 185.921 74.6887C186.897 74.0611 187.595 73.1343 188.039 71.9783L186.171 71.2617ZM182.485 73.59C181.052 73.59 179.94 73.1237 179.065 72.2159L177.625 73.6041C178.91 74.9363 180.558 75.59 182.485 75.59V73.59ZM179.077 72.2291C178.245 71.3339 177.755 69.973 177.755 67.99H175.755C175.755 70.287 176.325 72.2061 177.613 73.5909L179.077 72.2291ZM177.755 67.99C177.755 66.0357 178.251 64.6711 179.107 63.7514L177.643 62.3886C176.339 63.7889 175.755 65.7043 175.755 67.99H177.755ZM179.107 63.7514C179.976 62.8182 181.119 62.33 182.635 62.33V60.33C180.631 60.33 178.934 61.0018 177.643 62.3886L179.107 63.7514ZM182.635 73.64C184.126 73.64 185.419 73.1898 186.402 72.2071L184.988 70.7929C184.451 71.3302 183.704 71.64 182.635 71.64V73.64ZM186.402 72.2071C187.436 71.1734 187.865 69.7041 187.865 67.99H185.865C185.865 69.3959 185.514 70.2666 184.988 70.7929L186.402 72.2071ZM187.861 67.8995C187.693 66.0517 187.184 64.5111 186.112 63.5762L184.798 65.0838C185.286 65.5089 185.717 66.4083 185.869 68.0805L187.861 67.8995ZM186.122 63.5848C185.16 62.7241 183.975 62.31 182.635 62.31V64.31C183.535 64.31 184.23 64.5759 184.788 65.0752L186.122 63.5848ZM182.635 62.31C181.177 62.31 179.92 62.7661 179.01 63.7832L180.5 65.1168C180.95 64.6139 181.613 64.31 182.635 64.31V62.31ZM179.01 63.7832C178.094 64.8063 177.735 66.2776 177.735 67.99H179.735C179.735 66.5024 180.056 65.6137 180.5 65.1168L179.01 63.7832ZM177.735 67.99C177.735 69.6863 178.096 71.1455 179.01 72.1668L180.5 70.8332C180.054 70.3344 179.735 69.4537 179.735 67.99H177.735ZM179.01 72.1668C179.92 73.1839 181.177 73.64 182.635 73.64V71.64C181.613 71.64 180.95 71.3361 180.5 70.8332L179.01 72.1668ZM207.167 82V83H208.167V82H207.167ZM195.408 82H194.408V83H195.408V82ZM195.408 80.02V79.02H194.408V80.02H195.408ZM200.508 80.02V81.02H201.508V80.02H200.508ZM200.508 67.57H201.508V66.57H200.508V67.57ZM195.678 67.57H194.677V68.57H195.678V67.57ZM195.678 65.59V64.59H194.677V65.59H195.678ZM200.508 65.59V66.59H201.508V65.59H200.508ZM200.508 61.48V60.48H199.508V61.48H200.508ZM202.488 61.48H203.488V60.48H202.488V61.48ZM202.488 80.02H201.488V81.02H202.488V80.02ZM207.167 80.02H208.167V79.02H207.167V80.02ZM207.167 81H195.408V83H207.167V81ZM196.408 82V80.02H194.408V82H196.408ZM195.408 81.02H200.508V79.02H195.408V81.02ZM201.508 80.02V67.57H199.508V80.02H201.508ZM200.508 66.57H195.678V68.57H200.508V66.57ZM196.678 67.57V65.59H194.677V67.57H196.678ZM195.678 66.59H200.508V64.59H195.678V66.59ZM201.508 65.59V61.48H199.508V65.59H201.508ZM200.508 62.48H202.488V60.48H200.508V62.48ZM201.488 61.48V80.02H203.488V61.48H201.488ZM202.488 81.02H207.167V79.02H202.488V81.02ZM206.167 80.02V82H208.167V80.02H206.167Z" fill="#373737" mask="url(#path-2-outside-1_0_1)"/>
</svg>
